<?xml version="1.0" encoding="UTF-8" standalone="no"?>
<!DOCTYPE svg PUBLIC "-//W3C//DTD SVG 1.1//EN"
 "http://www.w3.org/Graphics/SVG/1.1/DTD/svg11.dtd">
<!-- Generated by graphviz version 7.0.4 (20221203.1631)
 -->
<!-- Title: dependency&#45;cruiser output Pages: 1 -->
<svg width="524pt" height="786pt"
 viewBox="0.00 0.00 523.50 786.00" xmlns="http://www.w3.org/2000/svg" xmlns:xlink="http://www.w3.org/1999/xlink">
<g id="graph0" class="graph" transform="scale(1 1) rotate(0) translate(4 782)">
<title>dependency&#45;cruiser output</title>
<polygon fill="white" stroke="none" points="-4,4 -4,-782 519.5,-782 519.5,4 -4,4"/>
<g id="clust1" class="cluster">
<title>cluster_apps</title>
<path fill="#ffffff" stroke="black" stroke-width="2" d="M21,-8C21,-8 495.5,-8 495.5,-8 501.5,-8 507.5,-14 507.5,-20 507.5,-20 507.5,-558 507.5,-558 507.5,-564 501.5,-570 495.5,-570 495.5,-570 21,-570 21,-570 15,-570 9,-564 9,-558 9,-558 9,-20 9,-20 9,-14 15,-8 21,-8"/>
<text text-anchor="middle" x="258.25" y="-558.8" font-family="Helvetica,sans-Serif" font-weight="bold" font-size="9.00">apps</text>
</g>
<g id="clust2" class="cluster">
<title>cluster_apps/extension</title>
<path fill="#ffffff" stroke="black" stroke-width="2" d="M29,-294C29,-294 487.5,-294 487.5,-294 493.5,-294 499.5,-300 499.5,-306 499.5,-306 499.5,-532 499.5,-532 499.5,-538 493.5,-544 487.5,-544 487.5,-544 29,-544 29,-544 23,-544 17,-538 17,-532 17,-532 17,-306 17,-306 17,-300 23,-294 29,-294"/>
<text text-anchor="middle" x="258.25" y="-532.8" font-family="Helvetica,sans-Serif" font-weight="bold" font-size="9.00">extension</text>
</g>
<g id="clust3" class="cluster">
<title>cluster_apps/extension/src</title>
<path fill="#ffffff" stroke="black" stroke-width="2" d="M37,-302C37,-302 479.5,-302 479.5,-302 485.5,-302 491.5,-308 491.5,-314 491.5,-314 491.5,-506 491.5,-506 491.5,-512 485.5,-518 479.5,-518 479.5,-518 37,-518 37,-518 31,-518 25,-512 25,-506 25,-506 25,-314 25,-314 25,-308 31,-302 37,-302"/>
<text text-anchor="middle" x="258.25" y="-506.8" font-family="Helvetica,sans-Serif" font-weight="bold" font-size="9.00">src</text>
</g>
<g id="clust4" class="cluster">
<title>cluster_apps/extension/src/background</title>
<path fill="#ffffff" stroke="black" stroke-width="2" d="M45,-440C45,-440 91,-440 91,-440 97,-440 103,-446 103,-452 103,-452 103,-480 103,-480 103,-486 97,-492 91,-492 91,-492 45,-492 45,-492 39,-492 33,-486 33,-480 33,-480 33,-452 33,-452 33,-446 39,-440 45,-440"/>
<text text-anchor="middle" x="68" y="-480.8" font-family="Helvetica,sans-Serif" font-weight="bold" font-size="9.00">background</text>
</g>
<g id="clust5" class="cluster">
<title>cluster_apps/extension/src/content</title>
<path fill="#ffffff" stroke="black" stroke-width="2" d="M45,-336C45,-336 471.5,-336 471.5,-336 477.5,-336 483.5,-342 483.5,-348 483.5,-348 483.5,-420 483.5,-420 483.5,-426 477.5,-432 471.5,-432 471.5,-432 45,-432 45,-432 39,-432 33,-426 33,-420 33,-420 33,-348 33,-348 33,-342 39,-336 45,-336"/>
<text text-anchor="middle" x="258.25" y="-420.8" font-family="Helvetica,sans-Serif" font-weight="bold" font-size="9.00">content</text>
</g>
<g id="clust6" class="cluster">
<title>cluster_apps/extension/src/content/adapters</title>
<path fill="#ffffff" stroke="black" stroke-width="2" d="M321,-344C321,-344 373,-344 373,-344 379,-344 385,-350 385,-356 385,-356 385,-384 385,-384 385,-390 379,-396 373,-396 373,-396 321,-396 321,-396 315,-396 309,-390 309,-384 309,-384 309,-356 309,-356 309,-350 315,-344 321,-344"/>
<text text-anchor="middle" x="347" y="-384.8" font-family="Helvetica,sans-Serif" font-weight="bold" font-size="9.00">adapters</text>
</g>
<g id="clust7" class="cluster">
<title>cluster_apps/popup&#45;ui</title>
<path fill="#ffffff" stroke="black" stroke-width="2" d="M34.5,-16C34.5,-16 401.5,-16 401.5,-16 407.5,-16 413.5,-22 413.5,-28 413.5,-28 413.5,-274 413.5,-274 413.5,-280 407.5,-286 401.5,-286 401.5,-286 34.5,-286 34.5,-286 28.5,-286 22.5,-280 22.5,-274 22.5,-274 22.5,-28 22.5,-28 22.5,-22 28.5,-16 34.5,-16"/>
<text text-anchor="middle" x="218" y="-274.8" font-family="Helvetica,sans-Serif" font-weight="bold" font-size="9.00">popup&#45;ui</text>
</g>
<g id="clust8" class="cluster">
<title>cluster_apps/popup&#45;ui/src</title>
<path fill="#ffffff" stroke="black" stroke-width="2" d="M42.5,-24C42.5,-24 393.5,-24 393.5,-24 399.5,-24 405.5,-30 405.5,-36 405.5,-36 405.5,-248 405.5,-248 405.5,-254 399.5,-260 393.5,-260 393.5,-260 42.5,-260 42.5,-260 36.5,-260 30.5,-254 30.5,-248 30.5,-248 30.5,-36 30.5,-36 30.5,-30 36.5,-24 42.5,-24"/>
<text text-anchor="middle" x="218" y="-248.8" font-family="Helvetica,sans-Serif" font-weight="bold" font-size="9.00">src</text>
</g>
<g id="clust9" class="cluster">
<title>cluster_apps/popup&#45;ui/src/components</title>
<path fill="#ffffff" stroke="black" stroke-width="2" d="M198,-32C198,-32 385.5,-32 385.5,-32 391.5,-32 397.5,-38 397.5,-44 397.5,-44 397.5,-162 397.5,-162 397.5,-168 391.5,-174 385.5,-174 385.5,-174 198,-174 198,-174 192,-174 186,-168 186,-162 186,-162 186,-44 186,-44 186,-38 192,-32 198,-32"/>
<text text-anchor="middle" x="291.75" y="-162.8" font-family="Helvetica,sans-Serif" font-weight="bold" font-size="9.00">components</text>
</g>
<g id="clust10" class="cluster">
<title>cluster_apps/popup&#45;ui/src/hooks</title>
<path fill="#ffffff" stroke="black" stroke-width="2" d="M206,-182C206,-182 272,-182 272,-182 278,-182 284,-188 284,-194 284,-194 284,-222 284,-222 284,-228 278,-234 272,-234 272,-234 206,-234 206,-234 200,-234 194,-228 194,-222 194,-222 194,-194 194,-194 194,-188 200,-182 206,-182"/>
<text text-anchor="middle" x="239" y="-222.8" font-family="Helvetica,sans-Serif" font-weight="bold" font-size="9.00">hooks</text>
</g>
<g id="clust11" class="cluster">
<title>cluster_packages</title>
<path fill="#ffffff" stroke="black" stroke-width="2" d="M20,-578C20,-578 284.5,-578 284.5,-578 290.5,-578 296.5,-584 296.5,-590 296.5,-590 296.5,-758 296.5,-758 296.5,-764 290.5,-770 284.5,-770 284.5,-770 20,-770 20,-770 14,-770 8,-764 8,-758 8,-758 8,-590 8,-590 8,-584 14,-578 20,-578"/>
<text text-anchor="middle" x="152.25" y="-758.8" font-family="Helvetica,sans-Serif" font-weight="bold" font-size="9.00">packages</text>
</g>
<g id="clust12" class="cluster">
<title>cluster_packages/core</title>
<path fill="#ffffff" stroke="black" stroke-width="2" d="M28,-586C28,-586 276.5,-586 276.5,-586 282.5,-586 288.5,-592 288.5,-598 288.5,-598 288.5,-732 288.5,-732 288.5,-738 282.5,-744 276.5,-744 276.5,-744 28,-744 28,-744 22,-744 16,-738 16,-732 16,-732 16,-598 16,-598 16,-592 22,-586 28,-586"/>
<text text-anchor="middle" x="152.25" y="-732.8" font-family="Helvetica,sans-Serif" font-weight="bold" font-size="9.00">core</text>
</g>
<g id="clust13" class="cluster">
<title>cluster_packages/core/src</title>
<path fill="#ffffff" stroke="black" stroke-width="2" d="M36,-594C36,-594 268.5,-594 268.5,-594 274.5,-594 280.5,-600 280.5,-606 280.5,-606 280.5,-706 280.5,-706 280.5,-712 274.5,-718 268.5,-718 268.5,-718 36,-718 36,-718 30,-718 24,-712 24,-706 24,-706 24,-606 24,-606 24,-600 30,-594 36,-594"/>
<text text-anchor="middle" x="152.25" y="-706.8" font-family="Helvetica,sans-Serif" font-weight="bold" font-size="9.00">src</text>
</g>
<!-- apps/extension/src/background/index.ts -->
<g id="node1" class="node">
<title>apps/extension/src/background/index.ts</title>
<g id="a_node1"><a xlink:href="apps/extension/src/background/index.ts" xlink:title="no&#45;orphans">
<path fill="#ccffcc" stroke="orange" d="M89,-466C89,-466 47,-466 47,-466 44,-466 41,-463 41,-460 41,-460 41,-454 41,-454 41,-451 44,-448 47,-448 47,-448 89,-448 89,-448 92,-448 95,-451 95,-454 95,-454 95,-460 95,-460 95,-463 92,-466 89,-466"/>
<text text-anchor="start" x="52" y="-454.8" font-family="Helvetica,sans-Serif" font-size="9.00" fill="orange">index.ts</text>
</a>
</g>
</g>
<!-- apps/extension/src/content/adapters/workday.ts -->
<g id="node2" class="node">
<title>apps/extension/src/content/adapters/workday.ts</title>
<g id="a_node2"><a xlink:href="apps/extension/src/content/adapters/workday.ts" xlink:title="workday.ts">
<path fill="#ddfeff" stroke="black" d="M371,-370C371,-370 323,-370 323,-370 320,-370 317,-367 317,-364 317,-364 317,-358 317,-358 317,-355 320,-352 323,-352 323,-352 371,-352 371,-352 374,-352 377,-355 377,-358 377,-358 377,-364 377,-364 377,-367 374,-370 371,-370"/>
<text text-anchor="start" x="325" y="-358.8" font-family="Helvetica,sans-Serif" font-size="9.00">workday.ts</text>
</a>
</g>
</g>
<!-- apps/extension/src/content/types.ts -->
<g id="node3" class="node">
<title>apps/extension/src/content/types.ts</title>
<g id="a_node3"><a xlink:href="apps/extension/src/content/types.ts" xlink:title="types.ts">
<path fill="#ddfeff" stroke="black" d="M469.5,-388C469.5,-388 427.5,-388 427.5,-388 424.5,-388 421.5,-385 421.5,-382 421.5,-382 421.5,-376 421.5,-376 421.5,-373 424.5,-370 427.5,-370 427.5,-370 469.5,-370 469.5,-370 472.5,-370 475.5,-373 475.5,-376 475.5,-376 475.5,-382 475.5,-382 475.5,-385 472.5,-388 469.5,-388"/>
<text text-anchor="start" x="432.5" y="-376.8" font-family="Helvetica,sans-Serif" font-size="9.00">types.ts</text>
</a>
</g>
</g>
<!-- apps/extension/src/content/adapters/workday.ts&#45;&gt;apps/extension/src/content/types.ts -->
<g id="edge1" class="edge">
<title>apps/extension/src/content/adapters/workday.ts&#45;&gt;apps/extension/src/content/types.ts</title>
<path fill="none" stroke="#000000" stroke-width="2" stroke-opacity="0.200000" d="M377.32,-366.3C388.26,-368.28 400.81,-370.55 412.23,-372.62"/>
<polygon fill="#000000" fill-opacity="0.200000" stroke="#000000" stroke-width="2" stroke-opacity="0.200000" points="411.85,-374.68 418.13,-373.69 412.6,-370.55 411.85,-374.68"/>
</g>
<!-- apps/extension/src/content/applier.ts -->
<g id="node4" class="node">
<title>apps/extension/src/content/applier.ts</title>
<g id="a_node4"><a xlink:href="apps/extension/src/content/applier.ts" xlink:title="applier.ts">
<path fill="#ddfeff" stroke="black" d="M169,-366C169,-366 126,-366 126,-366 123,-366 120,-363 120,-360 120,-360 120,-354 120,-354 120,-351 123,-348 126,-348 126,-348 169,-348 169,-348 172,-348 175,-351 175,-354 175,-354 175,-360 175,-360 175,-363 172,-366 169,-366"/>
<text text-anchor="start" x="128" y="-354.8" font-family="Helvetica,sans-Serif" font-size="9.00">applier.ts</text>
</a>
</g>
</g>
<!-- apps/extension/src/content/registry.ts -->
<g id="node5" class="node">
<title>apps/extension/src/content/registry.ts</title>
<g id="a_node5"><a xlink:href="apps/extension/src/content/registry.ts" xlink:title="registry.ts">
<path fill="#ddfeff" stroke="black" d="M261,-383C261,-383 217,-383 217,-383 214,-383 211,-380 211,-377 211,-377 211,-371 211,-371 211,-368 214,-365 217,-365 217,-365 261,-365 261,-365 264,-365 267,-368 267,-371 267,-371 267,-377 267,-377 267,-380 264,-383 261,-383"/>
<text text-anchor="start" x="219" y="-371.8" font-family="Helvetica,sans-Serif" font-size="9.00">registry.ts</text>
</a>
</g>
</g>
<!-- apps/extension/src/content/applier.ts&#45;&gt;apps/extension/src/content/registry.ts -->
<g id="edge2" class="edge">
<title>apps/extension/src/content/applier.ts&#45;&gt;apps/extension/src/content/registry.ts</title>
<path fill="none" stroke="#000000" stroke-width="2" stroke-opacity="0.200000" d="M175.35,-362.1C183.69,-363.68 193.03,-365.46 201.89,-367.14"/>
<polygon fill="#000000" fill-opacity="0.200000" stroke="#000000" stroke-width="2" stroke-opacity="0.200000" points="201.29,-369.16 207.57,-368.22 202.07,-365.04 201.29,-369.16"/>
</g>
<!-- apps/extension/src/content/registry.ts&#45;&gt;apps/extension/src/content/adapters/workday.ts -->
<g id="edge6" class="edge">
<title>apps/extension/src/content/registry.ts&#45;&gt;apps/extension/src/content/adapters/workday.ts</title>
<path fill="none" stroke="#000000" stroke-width="2" stroke-opacity="0.200000" d="M267.3,-370.65C279.68,-369.13 294.52,-367.31 307.97,-365.66"/>
<polygon fill="#000000" fill-opacity="0.200000" stroke="#000000" stroke-width="2" stroke-opacity="0.200000" points="307.86,-367.79 313.56,-364.98 307.35,-363.62 307.86,-367.79"/>
</g>
<!-- apps/extension/src/content/registry.ts&#45;&gt;apps/extension/src/content/types.ts -->
<g id="edge7" class="edge">
<title>apps/extension/src/content/registry.ts&#45;&gt;apps/extension/src/content/types.ts</title>
<path fill="none" stroke="#000000" stroke-width="2" stroke-opacity="0.200000" d="M258.93,-383.48C271.5,-389.23 288.56,-396.02 304.5,-399 352.12,-407.91 366.76,-411.73 413.5,-399 418.37,-397.67 423.26,-395.45 427.75,-392.96"/>
<polygon fill="#000000" fill-opacity="0.200000" stroke="#000000" stroke-width="2" stroke-opacity="0.200000" points="428.71,-394.83 432.73,-389.9 426.52,-391.25 428.71,-394.83"/>
</g>
<!-- apps/extension/src/content/extractor.ts -->
<g id="node6" class="node">
<title>apps/extension/src/content/extractor.ts</title>
<g id="a_node6"><a xlink:href="apps/extension/src/content/extractor.ts" xlink:title="extractor.ts">
<path fill="#ddfeff" stroke="black" d="M172,-396C172,-396 123,-396 123,-396 120,-396 117,-393 117,-390 117,-390 117,-384 117,-384 117,-381 120,-378 123,-378 123,-378 172,-378 172,-378 175,-378 178,-381 178,-384 178,-384 178,-390 178,-390 178,-393 175,-396 172,-396"/>
<text text-anchor="start" x="125" y="-384.8" font-family="Helvetica,sans-Serif" font-size="9.00">extractor.ts</text>
</a>
</g>
</g>
<!-- apps/extension/src/content/extractor.ts&#45;&gt;apps/extension/src/content/registry.ts -->
<g id="edge3" class="edge">
<title>apps/extension/src/content/extractor.ts&#45;&gt;apps/extension/src/content/registry.ts</title>
<path fill="none" stroke="#000000" stroke-width="2" stroke-opacity="0.200000" d="M178.3,-382.67C185.91,-381.57 194.18,-380.37 202.06,-379.22"/>
<polygon fill="#000000" fill-opacity="0.200000" stroke="#000000" stroke-width="2" stroke-opacity="0.200000" points="202.11,-381.34 207.75,-378.39 201.51,-377.18 202.11,-381.34"/>
</g>
<!-- apps/extension/src/content/index.ts -->
<g id="node7" class="node">
<title>apps/extension/src/content/index.ts</title>
<g id="a_node7"><a xlink:href="apps/extension/src/content/index.ts" xlink:title="index.ts">
<path fill="#ddfeff" stroke="black" d="M89,-381C89,-381 47,-381 47,-381 44,-381 41,-378 41,-375 41,-375 41,-369 41,-369 41,-366 44,-363 47,-363 47,-363 89,-363 89,-363 92,-363 95,-366 95,-369 95,-369 95,-375 95,-375 95,-378 92,-381 89,-381"/>
<text text-anchor="start" x="52" y="-369.8" font-family="Helvetica,sans-Serif" font-size="9.00">index.ts</text>
</a>
</g>
</g>
<!-- apps/extension/src/content/index.ts&#45;&gt;apps/extension/src/content/applier.ts -->
<g id="edge4" class="edge">
<title>apps/extension/src/content/index.ts&#45;&gt;apps/extension/src/content/applier.ts</title>
<path fill="none" stroke="#000000" stroke-width="2" stroke-opacity="0.200000" d="M95.24,-366.92C100.3,-365.94 105.68,-364.9 110.99,-363.87"/>
<polygon fill="#000000" fill-opacity="0.200000" stroke="#000000" stroke-width="2" stroke-opacity="0.200000" points="111.3,-365.95 116.79,-362.75 110.5,-361.83 111.3,-365.95"/>
</g>
<!-- apps/extension/src/content/index.ts&#45;&gt;apps/extension/src/content/extractor.ts -->
<g id="edge5" class="edge">
<title>apps/extension/src/content/index.ts&#45;&gt;apps/extension/src/content/extractor.ts</title>
<path fill="none" stroke="#000000" stroke-width="2" stroke-opacity="0.200000" d="M95.24,-377.08C99.31,-377.87 103.58,-378.69 107.85,-379.52"/>
<polygon fill="#000000" fill-opacity="0.200000" stroke="#000000" stroke-width="2" stroke-opacity="0.200000" points="107.29,-381.55 113.58,-380.63 108.09,-377.43 107.29,-381.55"/>
</g>
<!-- apps/extension/src/global.d.ts -->
<g id="node8" class="node">
<title>apps/extension/src/global.d.ts</title>
<g id="a_node8"><a xlink:href="apps/extension/src/global.d.ts" xlink:title="global.d.ts">
<path fill="#ccffcc" stroke="black" d="M91.5,-328C91.5,-328 44.5,-328 44.5,-328 41.5,-328 38.5,-325 38.5,-322 38.5,-322 38.5,-316 38.5,-316 38.5,-313 41.5,-310 44.5,-310 44.5,-310 91.5,-310 91.5,-310 94.5,-310 97.5,-313 97.5,-316 97.5,-316 97.5,-322 97.5,-322 97.5,-325 94.5,-328 91.5,-328"/>
<text text-anchor="start" x="46.5" y="-316.8" font-family="Helvetica,sans-Serif" font-size="9.00">global.d.ts</text>
</a>
</g>
</g>
<!-- apps/popup&#45;ui/src/App.tsx -->
<g id="node9" class="node">
<title>apps/popup&#45;ui/src/App.tsx</title>
<g id="a_node9"><a xlink:href="apps/popup-ui/src/App.tsx" xlink:title="App.tsx">
<path fill="#bbfeff" stroke="black" d="M168.5,-118C168.5,-118 126.5,-118 126.5,-118 123.5,-118 120.5,-115 120.5,-112 120.5,-112 120.5,-106 120.5,-106 120.5,-103 123.5,-100 126.5,-100 126.5,-100 168.5,-100 168.5,-100 171.5,-100 174.5,-103 174.5,-106 174.5,-106 174.5,-112 174.5,-112 174.5,-115 171.5,-118 168.5,-118"/>
<text text-anchor="start" x="132.5" y="-106.8" font-family="Helvetica,sans-Serif" font-size="9.00">App.tsx</text>
</a>
</g>
</g>
<!-- apps/popup&#45;ui/src/components/ConfirmDialog.tsx -->
<g id="node10" class="node">
<title>apps/popup&#45;ui/src/components/ConfirmDialog.tsx</title>
<g id="a_node10"><a xlink:href="apps/popup-ui/src/components/ConfirmDialog.tsx" xlink:title="ConfirmDialog.tsx">
<path fill="#bbfeff" stroke="black" d="M278,-148C278,-148 200,-148 200,-148 197,-148 194,-145 194,-142 194,-142 194,-136 194,-136 194,-133 197,-130 200,-130 200,-130 278,-130 278,-130 281,-130 284,-133 284,-136 284,-136 284,-142 284,-142 284,-145 281,-148 278,-148"/>
<text text-anchor="start" x="202" y="-136.8" font-family="Helvetica,sans-Serif" font-size="9.00">ConfirmDialog.tsx</text>
</a>
</g>
</g>
<!-- apps/popup&#45;ui/src/App.tsx&#45;&gt;apps/popup&#45;ui/src/components/ConfirmDialog.tsx -->
<g id="edge8" class="edge">
<title>apps/popup&#45;ui/src/App.tsx&#45;&gt;apps/popup&#45;ui/src/components/ConfirmDialog.tsx</title>
<path fill="none" stroke="#000000" stroke-width="2" stroke-opacity="0.200000" d="M170.97,-118.41C175.89,-120.35 181.09,-122.32 186,-124 188.89,-124.99 191.88,-125.97 194.9,-126.93"/>
<polygon fill="#000000" fill-opacity="0.200000" stroke="#000000" stroke-width="2" stroke-opacity="0.200000" points="194.2,-128.91 200.55,-128.67 195.43,-124.9 194.2,-128.91"/>
</g>
<!-- apps/popup&#45;ui/src/components/Onboarding.tsx -->
<g id="node11" class="node">
<title>apps/popup&#45;ui/src/components/Onboarding.tsx</title>
<g id="a_node11"><a xlink:href="apps/popup-ui/src/components/Onboarding.tsx" xlink:title="Onboarding.tsx">
<path fill="#bbfeff" stroke="black" d="M272.5,-118C272.5,-118 205.5,-118 205.5,-118 202.5,-118 199.5,-115 199.5,-112 199.5,-112 199.5,-106 199.5,-106 199.5,-103 202.5,-100 205.5,-100 205.5,-100 272.5,-100 272.5,-100 275.5,-100 278.5,-103 278.5,-106 278.5,-106 278.5,-112 278.5,-112 278.5,-115 275.5,-118 272.5,-118"/>
<text text-anchor="start" x="207.5" y="-106.8" font-family="Helvetica,sans-Serif" font-size="9.00">Onboarding.tsx</text>
</a>
</g>
</g>
<!-- apps/popup&#45;ui/src/App.tsx&#45;&gt;apps/popup&#45;ui/src/components/Onboarding.tsx -->
<g id="edge9" class="edge">
<title>apps/popup&#45;ui/src/App.tsx&#45;&gt;apps/popup&#45;ui/src/components/Onboarding.tsx</title>
<path fill="none" stroke="#000000" stroke-width="2" stroke-opacity="0.200000" d="M174.87,-109C179.76,-109 185,-109 190.3,-109"/>
<polygon fill="#000000" fill-opacity="0.200000" stroke="#000000" stroke-width="2" stroke-opacity="0.200000" points="190.19,-111.1 196.19,-109 190.19,-106.9 190.19,-111.1"/>
</g>
<!-- apps/popup&#45;ui/src/components/ProfileEditor.tsx -->
<g id="node12" class="node">
<title>apps/popup&#45;ui/src/components/ProfileEditor.tsx</title>
<g id="a_node12"><a xlink:href="apps/popup-ui/src/components/ProfileEditor.tsx" xlink:title="ProfileEditor.tsx">
<path fill="#bbfeff" stroke="black" d="M273,-88C273,-88 205,-88 205,-88 202,-88 199,-85 199,-82 199,-82 199,-76 199,-76 199,-73 202,-70 205,-70 205,-70 273,-70 273,-70 276,-70 279,-73 279,-76 279,-76 279,-82 279,-82 279,-85 276,-88 273,-88"/>
<text text-anchor="start" x="207" y="-76.8" font-family="Helvetica,sans-Serif" font-size="9.00">ProfileEditor.tsx</text>
</a>
</g>
</g>
<!-- apps/popup&#45;ui/src/App.tsx&#45;&gt;apps/popup&#45;ui/src/components/ProfileEditor.tsx -->
<g id="edge10" class="edge">
<title>apps/popup&#45;ui/src/App.tsx&#45;&gt;apps/popup&#45;ui/src/components/ProfileEditor.tsx</title>
<path fill="none" stroke="#000000" stroke-width="2" stroke-opacity="0.200000" d="M170.97,-99.59C175.89,-97.65 181.09,-95.68 186,-94 188.89,-93.01 191.88,-92.03 194.9,-91.07"/>
<polygon fill="#000000" fill-opacity="0.200000" stroke="#000000" stroke-width="2" stroke-opacity="0.200000" points="195.43,-93.1 200.55,-89.33 194.2,-89.09 195.43,-93.1"/>
</g>
<!-- apps/popup&#45;ui/src/components/Sidebar.tsx -->
<g id="node13" class="node">
<title>apps/popup&#45;ui/src/components/Sidebar.tsx</title>
<g id="a_node13"><a xlink:href="apps/popup-ui/src/components/Sidebar.tsx" xlink:title="Sidebar.tsx">
<path fill="#bbfeff" stroke="black" d="M264,-58C264,-58 214,-58 214,-58 211,-58 208,-55 208,-52 208,-52 208,-46 208,-46 208,-43 211,-40 214,-40 214,-40 264,-40 264,-40 267,-40 270,-43 270,-46 270,-46 270,-52 270,-52 270,-55 267,-58 264,-58"/>
<text text-anchor="start" x="216" y="-46.8" font-family="Helvetica,sans-Serif" font-size="9.00">Sidebar.tsx</text>
</a>
</g>
</g>
<!-- apps/popup&#45;ui/src/App.tsx&#45;&gt;apps/popup&#45;ui/src/components/Sidebar.tsx -->
<g id="edge11" class="edge">
<title>apps/popup&#45;ui/src/App.tsx&#45;&gt;apps/popup&#45;ui/src/components/Sidebar.tsx</title>
<path fill="none" stroke="#000000" stroke-width="2" stroke-opacity="0.200000" d="M153.9,-99.65C160.29,-89.41 171.86,-73.23 186,-64 190.03,-61.37 194.53,-59.19 199.16,-57.38"/>
<polygon fill="#000000" fill-opacity="0.200000" stroke="#000000" stroke-width="2" stroke-opacity="0.200000" points="199.66,-59.43 204.66,-55.51 198.31,-55.46 199.66,-59.43"/>
</g>
<!-- apps/popup&#45;ui/src/hooks/useProfiles.ts -->
<g id="node14" class="node">
<title>apps/popup&#45;ui/src/hooks/useProfiles.ts</title>
<g id="a_node14"><a xlink:href="apps/popup-ui/src/hooks/useProfiles.ts" xlink:title="useProfiles.ts">
<path fill="#ddfeff" stroke="black" d="M270,-208C270,-208 208,-208 208,-208 205,-208 202,-205 202,-202 202,-202 202,-196 202,-196 202,-193 205,-190 208,-190 208,-190 270,-190 270,-190 273,-190 276,-193 276,-196 276,-196 276,-202 276,-202 276,-205 273,-208 270,-208"/>
<text text-anchor="start" x="210" y="-196.8" font-family="Helvetica,sans-Serif" font-size="9.00">useProfiles.ts</text>
</a>
</g>
</g>
<!-- apps/popup&#45;ui/src/App.tsx&#45;&gt;apps/popup&#45;ui/src/hooks/useProfiles.ts -->
<g id="edge12" class="edge">
<title>apps/popup&#45;ui/src/App.tsx&#45;&gt;apps/popup&#45;ui/src/hooks/useProfiles.ts</title>
<path fill="none" stroke="#000000" stroke-width="2" stroke-opacity="0.200000" d="M151.36,-118.17C156.26,-132.53 167.57,-160.39 186,-177 189.64,-180.28 193.84,-183.12 198.25,-185.56"/>
<polygon fill="#000000" fill-opacity="0.200000" stroke="#000000" stroke-width="2" stroke-opacity="0.200000" points="197.3,-187.44 203.61,-188.21 199.15,-183.67 197.3,-187.44"/>
</g>
<!-- apps/popup&#45;ui/src/components/RuleTable.tsx -->
<g id="node15" class="node">
<title>apps/popup&#45;ui/src/components/RuleTable.tsx</title>
<g id="a_node15"><a xlink:href="apps/popup-ui/src/components/RuleTable.tsx" xlink:title="RuleTable.tsx">
<path fill="#bbfeff" stroke="black" d="M377.5,-88C377.5,-88 316.5,-88 316.5,-88 313.5,-88 310.5,-85 310.5,-82 310.5,-82 310.5,-76 310.5,-76 310.5,-73 313.5,-70 316.5,-70 316.5,-70 377.5,-70 377.5,-70 380.5,-70 383.5,-73 383.5,-76 383.5,-76 383.5,-82 383.5,-82 383.5,-85 380.5,-88 377.5,-88"/>
<text text-anchor="start" x="318.5" y="-76.8" font-family="Helvetica,sans-Serif" font-size="9.00">RuleTable.tsx</text>
</a>
</g>
</g>
<!-- apps/popup&#45;ui/src/components/ProfileEditor.tsx&#45;&gt;apps/popup&#45;ui/src/components/RuleTable.tsx -->
<g id="edge13" class="edge">
<title>apps/popup&#45;ui/src/components/ProfileEditor.tsx&#45;&gt;apps/popup&#45;ui/src/components/RuleTable.tsx</title>
<path fill="none" stroke="#000000" stroke-width="2" stroke-opacity="0.200000" d="M279.47,-79C286.75,-79 294.39,-79 301.79,-79"/>
<polygon fill="#000000" fill-opacity="0.200000" stroke="#000000" stroke-width="2" stroke-opacity="0.200000" points="301.32,-81.1 307.32,-79 301.32,-76.9 301.32,-81.1"/>
</g>
<!-- apps/popup&#45;ui/src/components/StorageMeter.tsx -->
<g id="node16" class="node">
<title>apps/popup&#45;ui/src/components/StorageMeter.tsx</title>
<g id="a_node16"><a xlink:href="apps/popup-ui/src/components/StorageMeter.tsx" xlink:title="StorageMeter.tsx">
<path fill="#bbfeff" stroke="black" d="M383.5,-58C383.5,-58 310.5,-58 310.5,-58 307.5,-58 304.5,-55 304.5,-52 304.5,-52 304.5,-46 304.5,-46 304.5,-43 307.5,-40 310.5,-40 310.5,-40 383.5,-40 383.5,-40 386.5,-40 389.5,-43 389.5,-46 389.5,-46 389.5,-52 389.5,-52 389.5,-55 386.5,-58 383.5,-58"/>
<text text-anchor="start" x="312.5" y="-46.8" font-family="Helvetica,sans-Serif" font-size="9.00">StorageMeter.tsx</text>
</a>
</g>
</g>
<!-- apps/popup&#45;ui/src/components/ProfileEditor.tsx&#45;&gt;apps/popup&#45;ui/src/components/StorageMeter.tsx -->
<g id="edge14" class="edge">
<title>apps/popup&#45;ui/src/components/ProfileEditor.tsx&#45;&gt;apps/popup&#45;ui/src/components/StorageMeter.tsx</title>
<path fill="none" stroke="#000000" stroke-width="2" stroke-opacity="0.200000" d="M276.52,-69.5C283.18,-67.71 290.06,-65.83 296.5,-64 299.85,-63.05 303.33,-62.04 306.81,-61.01"/>
<polygon fill="#000000" fill-opacity="0.200000" stroke="#000000" stroke-width="2" stroke-opacity="0.200000" points="307.37,-63.04 312.52,-59.31 306.17,-59.01 307.37,-63.04"/>
</g>
<!-- apps/popup&#45;ui/src/components/Sidebar.tsx&#45;&gt;apps/popup&#45;ui/src/components/StorageMeter.tsx -->
<g id="edge15" class="edge">
<title>apps/popup&#45;ui/src/components/Sidebar.tsx&#45;&gt;apps/popup&#45;ui/src/components/StorageMeter.tsx</title>
<path fill="none" stroke="#000000" stroke-width="2" stroke-opacity="0.200000" d="M270.38,-49C278.19,-49 286.8,-49 295.34,-49"/>
<polygon fill="#000000" fill-opacity="0.200000" stroke="#000000" stroke-width="2" stroke-opacity="0.200000" points="295.14,-51.1 301.14,-49 295.14,-46.9 295.14,-51.1"/>
</g>
<!-- apps/popup&#45;ui/src/storage.ts -->
<g id="node18" class="node">
<title>apps/popup&#45;ui/src/storage.ts</title>
<g id="a_node18"><a xlink:href="apps/popup-ui/src/storage.ts" xlink:title="storage.ts">
<path fill="#ddfeff" stroke="black" d="M370,-208C370,-208 324,-208 324,-208 321,-208 318,-205 318,-202 318,-202 318,-196 318,-196 318,-193 321,-190 324,-190 324,-190 370,-190 370,-190 373,-190 376,-193 376,-196 376,-196 376,-202 376,-202 376,-205 373,-208 370,-208"/>
<text text-anchor="start" x="326" y="-196.8" font-family="Helvetica,sans-Serif" font-size="9.00">storage.ts</text>
</a>
</g>
</g>
<!-- apps/popup&#45;ui/src/hooks/useProfiles.ts&#45;&gt;apps/popup&#45;ui/src/storage.ts -->
<g id="edge16" class="edge">
<title>apps/popup&#45;ui/src/hooks/useProfiles.ts&#45;&gt;apps/popup&#45;ui/src/storage.ts</title>
<path fill="none" stroke="#000000" stroke-width="2" stroke-opacity="0.200000" d="M276.48,-199C286.95,-199 298.37,-199 308.88,-199"/>
<polygon fill="#000000" fill-opacity="0.200000" stroke="#000000" stroke-width="2" stroke-opacity="0.200000" points="308.8,-201.1 314.8,-199 308.8,-196.9 308.8,-201.1"/>
</g>
<!-- apps/popup&#45;ui/src/global.d.ts -->
<g id="node17" class="node">
<title>apps/popup&#45;ui/src/global.d.ts</title>
<g id="a_node17"><a xlink:href="apps/popup-ui/src/global.d.ts" xlink:title="global.d.ts">
<path fill="#ccffcc" stroke="black" d="M91.5,-191C91.5,-191 44.5,-191 44.5,-191 41.5,-191 38.5,-188 38.5,-185 38.5,-185 38.5,-179 38.5,-179 38.5,-176 41.5,-173 44.5,-173 44.5,-173 91.5,-173 91.5,-173 94.5,-173 97.5,-176 97.5,-179 97.5,-179 97.5,-185 97.5,-185 97.5,-188 94.5,-191 91.5,-191"/>
<text text-anchor="start" x="46.5" y="-179.8" font-family="Helvetica,sans-Serif" font-size="9.00">global.d.ts</text>
</a>
</g>
</g>
<!-- apps/popup&#45;ui/src/main.tsx -->
<g id="node19" class="node">
<title>apps/popup&#45;ui/src/main.tsx</title>
<g id="a_node19"><a xlink:href="apps/popup-ui/src/main.tsx" xlink:title="main.tsx">
<path fill="#bbfeff" stroke="black" d="M89,-118C89,-118 47,-118 47,-118 44,-118 41,-115 41,-112 41,-112 41,-106 41,-106 41,-103 44,-100 47,-100 47,-100 89,-100 89,-100 92,-100 95,-103 95,-106 95,-106 95,-112 95,-112 95,-115 92,-118 89,-118"/>
<text text-anchor="start" x="50.5" y="-106.8" font-family="Helvetica,sans-Serif" font-size="9.00">main.tsx</text>
</a>
</g>
</g>
<!-- apps/popup&#45;ui/src/main.tsx&#45;&gt;apps/popup&#45;ui/src/App.tsx -->
<g id="edge17" class="edge">
<title>apps/popup&#45;ui/src/main.tsx&#45;&gt;apps/popup&#45;ui/src/App.tsx</title>
<path fill="none" stroke="#000000" stroke-width="2" stroke-opacity="0.200000" d="M95.24,-109C100.36,-109 105.8,-109 111.16,-109"/>
<polygon fill="#000000" fill-opacity="0.200000" stroke="#000000" stroke-width="2" stroke-opacity="0.200000" points="111,-111.1 117,-109 111,-106.9 111,-111.1"/>
</g>
<!-- packages/core/src/constants.ts -->
<g id="node20" class="node">
<title>packages/core/src/constants.ts</title>
<g id="a_node20"><a xlink:href="packages/core/src/constants.ts" xlink:title="constants.ts">
<path fill="#ddfeff" stroke="black" d="M266.5,-634C266.5,-634 211.5,-634 211.5,-634 208.5,-634 205.5,-631 205.5,-628 205.5,-628 205.5,-622 205.5,-622 205.5,-619 208.5,-616 211.5,-616 211.5,-616 266.5,-616 266.5,-616 269.5,-616 272.5,-619 272.5,-622 272.5,-622 272.5,-628 272.5,-628 272.5,-631 269.5,-634 266.5,-634"/>
<text text-anchor="start" x="213.5" y="-622.8" font-family="Helvetica,sans-Serif" font-size="9.00">constants.ts</text>
</a>
</g>
</g>
<!-- packages/core/src/defaults.ts -->
<g id="node21" class="node">
<title>packages/core/src/defaults.ts</title>
<g id="a_node21"><a xlink:href="packages/core/src/defaults.ts" xlink:title="defaults.ts">
<path fill="#ddfeff" stroke="black" d="M171,-634C171,-634 124,-634 124,-634 121,-634 118,-631 118,-628 118,-628 118,-622 118,-622 118,-619 121,-616 124,-616 124,-616 171,-616 171,-616 174,-616 177,-619 177,-622 177,-622 177,-628 177,-628 177,-631 174,-634 171,-634"/>
<text text-anchor="start" x="126" y="-622.8" font-family="Helvetica,sans-Serif" font-size="9.00">defaults.ts</text>
</a>
</g>
</g>
<!-- packages/core/src/defaults.ts&#45;&gt;packages/core/src/constants.ts -->
<g id="edge18" class="edge">
<title>packages/core/src/defaults.ts&#45;&gt;packages/core/src/constants.ts</title>
<path fill="none" stroke="#000000" stroke-width="2" stroke-opacity="0.200000" d="M177.31,-625C183.42,-625 189.99,-625 196.47,-625"/>
<polygon fill="#000000" fill-opacity="0.200000" stroke="#000000" stroke-width="2" stroke-opacity="0.200000" points="196.17,-627.1 202.17,-625 196.17,-622.9 196.17,-627.1"/>
</g>
<!-- packages/core/src/types.ts -->
<g id="node22" class="node">
<title>packages/core/src/types.ts</title>
<g id="a_node22"><a xlink:href="packages/core/src/types.ts" xlink:title="types.ts">
<path fill="#ddfeff" stroke="black" d="M260,-671C260,-671 218,-671 218,-671 215,-671 212,-668 212,-665 212,-665 212,-659 212,-659 212,-656 215,-653 218,-653 218,-653 260,-653 260,-653 263,-653 266,-656 266,-659 266,-659 266,-665 266,-665 266,-668 263,-671 260,-671"/>
<text text-anchor="start" x="223" y="-659.8" font-family="Helvetica,sans-Serif" font-size="9.00">types.ts</text>
</a>
</g>
</g>
<!-- packages/core/src/defaults.ts&#45;&gt;packages/core/src/types.ts -->
<g id="edge19" class="edge">
<title>packages/core/src/defaults.ts&#45;&gt;packages/core/src/types.ts</title>
<path fill="none" stroke="#000000" stroke-width="2" stroke-opacity="0.200000" d="M171.08,-634.34C181.92,-638.82 195.07,-644.25 206.84,-649.12"/>
<polygon fill="#000000" fill-opacity="0.200000" stroke="#000000" stroke-width="2" stroke-opacity="0.200000" points="205.97,-651.03 212.31,-651.38 207.57,-647.15 205.97,-651.03"/>
</g>
<!-- packages/core/src/engine.test.ts -->
<g id="node23" class="node">
<title>packages/core/src/engine.test.ts</title>
<g id="a_node23"><a xlink:href="packages/core/src/engine.test.ts" xlink:title="engine.test.ts">
<path fill="#ddfeff" stroke="black" d="M98,-685C98,-685 38,-685 38,-685 35,-685 32,-682 32,-679 32,-679 32,-673 32,-673 32,-670 35,-667 38,-667 38,-667 98,-667 98,-667 101,-667 104,-670 104,-673 104,-673 104,-679 104,-679 104,-682 101,-685 98,-685"/>
<text text-anchor="start" x="40" y="-673.8" font-family="Helvetica,sans-Serif" font-size="9.00">engine.test.ts</text>
</a>
</g>
</g>
<!-- packages/core/src/engine.test.ts&#45;&gt;packages/core/src/types.ts -->
<g id="edge21" class="edge">
<title>packages/core/src/engine.test.ts&#45;&gt;packages/core/src/types.ts</title>
<path fill="none" stroke="#000000" stroke-width="2" stroke-opacity="0.200000" d="M104.08,-682.97C125.56,-686.15 153.53,-688.35 178,-684 188.56,-682.12 199.7,-678.53 209.48,-674.78"/>
<polygon fill="#000000" fill-opacity="0.200000" stroke="#000000" stroke-width="2" stroke-opacity="0.200000" points="210.08,-676.8 214.86,-672.61 208.51,-672.9 210.08,-676.8"/>
</g>
<!-- packages/core/src/engine.ts -->
<g id="node24" class="node">
<title>packages/core/src/engine.ts</title>
<g id="a_node24"><a xlink:href="packages/core/src/engine.ts" xlink:title="engine.ts">
<path fill="#ddfeff" stroke="black" d="M169,-678C169,-678 126,-678 126,-678 123,-678 120,-675 120,-672 120,-672 120,-666 120,-666 120,-663 123,-660 126,-660 126,-660 169,-660 169,-660 172,-660 175,-663 175,-666 175,-666 175,-672 175,-672 175,-675 172,-678 169,-678"/>
<text text-anchor="start" x="128" y="-666.8" font-family="Helvetica,sans-Serif" font-size="9.00">engine.ts</text>
</a>
</g>
</g>
<!-- packages/core/src/engine.test.ts&#45;&gt;packages/core/src/engine.ts -->
<g id="edge20" class="edge">
<title>packages/core/src/engine.test.ts&#45;&gt;packages/core/src/engine.ts</title>
<path fill="none" stroke="#000000" stroke-width="2" stroke-opacity="0.200000" d="M104.12,-672.83C106.43,-672.62 108.77,-672.41 111.08,-672.2"/>
<polygon fill="#000000" fill-opacity="0.200000" stroke="#000000" stroke-width="2" stroke-opacity="0.200000" points="111.05,-674.31 116.84,-671.68 110.68,-670.13 111.05,-674.31"/>
</g>
<!-- packages/core/src/engine.ts&#45;&gt;packages/core/src/constants.ts -->
<g id="edge22" class="edge">
<title>packages/core/src/engine.ts&#45;&gt;packages/core/src/constants.ts</title>
<path fill="none" stroke="#000000" stroke-width="2" stroke-opacity="0.200000" d="M163.58,-659.55C170.32,-655.48 178.45,-650.79 186,-647 192.28,-643.84 199.13,-640.73 205.72,-637.88"/>
<polygon fill="#000000" fill-opacity="0.200000" stroke="#000000" stroke-width="2" stroke-opacity="0.200000" points="206.39,-639.88 211.1,-635.61 204.75,-636.01 206.39,-639.88"/>
</g>
<!-- packages/core/src/engine.ts&#45;&gt;packages/core/src/types.ts -->
<g id="edge23" class="edge">
<title>packages/core/src/engine.ts&#45;&gt;packages/core/src/types.ts</title>
<path fill="none" stroke="#000000" stroke-width="2" stroke-opacity="0.200000" d="M175.35,-666.9C184,-666.22 193.72,-665.46 202.88,-664.75"/>
<polygon fill="#000000" fill-opacity="0.200000" stroke="#000000" stroke-width="2" stroke-opacity="0.200000" points="202.95,-666.85 208.76,-664.29 202.62,-662.66 202.95,-666.85"/>
</g>
<!-- packages/core/src/index.ts -->
<g id="node25" class="node">
<title>packages/core/src/index.ts</title>
<g id="a_node25"><a xlink:href="packages/core/src/index.ts" xlink:title="index.ts">
<path fill="#ddfeff" stroke="black" d="M89,-644C89,-644 47,-644 47,-644 44,-644 41,-641 41,-638 41,-638 41,-632 41,-632 41,-629 44,-626 47,-626 47,-626 89,-626 89,-626 92,-626 95,-629 95,-632 95,-632 95,-638 95,-638 95,-641 92,-644 89,-644"/>
<text text-anchor="start" x="52" y="-632.8" font-family="Helvetica,sans-Serif" font-size="9.00">index.ts</text>
</a>
</g>
</g>
<!-- packages/core/src/index.ts&#45;&gt;packages/core/src/constants.ts -->
<g id="edge24" class="edge">
<title>packages/core/src/index.ts&#45;&gt;packages/core/src/constants.ts</title>
<path fill="none" stroke="#000000" stroke-width="2" stroke-opacity="0.200000" d="M82.57,-625.67C91.82,-619.9 104.59,-613.04 117,-610 144.11,-603.36 175.38,-607.54 199.35,-613.15"/>
<polygon fill="#000000" fill-opacity="0.200000" stroke="#000000" stroke-width="2" stroke-opacity="0.200000" points="207.33,-617.32 202.02,-613.82 208.35,-613.25 207.33,-617.32"/>
</g>
<!-- packages/core/src/index.ts&#45;&gt;packages/core/src/defaults.ts -->
<g id="edge25" class="edge">
<title>packages/core/src/index.ts&#45;&gt;packages/core/src/defaults.ts</title>
<path fill="none" stroke="#000000" stroke-width="2" stroke-opacity="0.200000" d="M95.24,-631.61C99.29,-631.09 103.54,-630.54 107.8,-629.99"/>
<polygon fill="#000000" fill-opacity="0.200000" stroke="#000000" stroke-width="2" stroke-opacity="0.200000" points="116.91,-630.94 110.69,-629.62 116.37,-626.77 116.91,-630.94"/>
</g>
<!-- packages/core/src/index.ts&#45;&gt;packages/core/src/types.ts -->
<g id="edge27" class="edge">
<title>packages/core/src/index.ts&#45;&gt;packages/core/src/types.ts</title>
<path fill="none" stroke="#000000" stroke-width="2" stroke-opacity="0.200000" d="M95.41,-639.22C123.97,-643.78 169.7,-651.09 201.65,-656.19"/>
<polygon fill="#000000" fill-opacity="0.200000" stroke="#000000" stroke-width="2" stroke-opacity="0.200000" points="210.18,-659.68 204.59,-656.66 210.84,-655.53 210.18,-659.68"/>
</g>
<!-- packages/core/src/index.ts&#45;&gt;packages/core/src/engine.ts -->
<g id="edge26" class="edge">
<title>packages/core/src/index.ts&#45;&gt;packages/core/src/engine.ts</title>
<path fill="none" stroke="#000000" stroke-width="2" stroke-opacity="0.200000" d="M90.59,-644.47C98.48,-647.93 107.57,-651.92 116.09,-655.66"/>
<polygon fill="#000000" fill-opacity="0.200000" stroke="#000000" stroke-width="2" stroke-opacity="0.200000" points="123.27,-661.1 118.62,-656.77 124.96,-657.26 123.27,-661.1"/>
</g>
</g>
</svg>
